<svg xmlns="http://www.w3.org/2000/svg" width="609" height="182" viewBox="0 0 609 182" fill="none"><path d="M418.715 55.6486C418.715 53.3833 420.551 51.5469 422.817 51.5469H475.485C490.567 51.5469 502.793 64.525 502.793 79.607C502.793 94.689 490.567 106.915 475.485 106.915H464.206L502.588 147.998H484.169C482.069 147.998 480.082 147.052 478.758 145.422L442.987 107.047C440.542 104.424 442.402 100.148 445.987 100.148H462.292C474.807 100.148 484.952 92.1855 484.952 79.6707C484.952 67.1558 474.807 58.3778 462.292 58.3778H436.556V147.998H418.715V55.6486Z" fill="black"></path><path d="M309.455 147.998C304.278 147.998 299.102 147.998 293.925 147.998C291.745 147.998 289.774 146.703 288.907 144.703L274.611 111.706H226.757L228.69 104.796H271.542L252.735 60.434L213.085 147.998H205.621L249.198 51.5469H263.52C265.69 51.5469 267.655 52.8298 268.527 54.8166L309.455 147.998Z" fill="black"></path><path d="M608.884 147.998C603.708 147.998 598.531 147.998 593.355 147.998C591.175 147.998 589.203 146.703 588.337 144.703L574.041 111.706H526.187L528.12 104.796H570.972L552.165 60.434L512.515 147.998H505.051L548.628 51.5469H562.95C565.12 51.5469 567.084 52.8298 567.957 54.8166L608.884 147.998Z" fill="black"></path><path fill-rule="evenodd" clip-rule="evenodd" d="M321.754 51.5469C319.489 51.5469 317.652 53.3833 317.652 55.6486C317.652 86.4317 317.652 117.215 317.652 147.998H358.154C384.788 147.998 406.379 126.406 406.379 99.7723C406.379 73.1381 384.788 51.5469 358.154 51.5469H321.754ZM335.494 58.3778V141.097H344.961C369.028 141.097 388.538 123.839 388.538 99.7723C388.538 75.7053 369.028 58.3778 344.961 58.3778H335.494Z" fill="black"></path><path fill-rule="evenodd" clip-rule="evenodd" d="M133.103 51.5C130.838 51.5 129.001 53.3357 129.001 55.6009C128.998 86.4375 129.002 117.823 129.002 147.995H146.843V112.343H183.653C200.019 112.343 213.285 97.5421 213.285 81.1765C213.285 64.811 200.018 51.5 183.653 51.5H133.103ZM146.843 58.1991V105.433H170.46C184.258 105.433 195.444 95.6145 195.444 81.8161C195.444 68.0177 184.258 58.1991 170.46 58.1991H146.843Z" fill="black"></path><path d="M58.8949 108.52C58.8949 121.255 66.7322 133.012 80.4475 133.012C92.3506 133.012 102 123.362 102 111.459C102 99.556 95.1424 90.8878 82.4068 85.9895C76.5946 83.6646 63.3034 77.6603 62.3237 55.6175L61.4921 12.7323C61.4739 11.794 60.7081 11.043 59.7697 11.043V11.043C58.8119 11.043 58.0374 11.7695 58.0465 12.7273C58.1645 25.1574 58.8949 102.353 58.8949 108.52Z" fill="#A94800"></path><path d="M43.1051 108.52C43.1051 121.255 35.2678 133.012 21.5525 133.012C9.6494 133.012 0 123.362 0 111.459C0 99.556 6.85763 90.8878 19.5932 85.9895C25.4054 83.6646 38.6966 77.6603 39.6763 55.6175L40.5079 12.7323C40.5261 11.794 41.2919 11.043 42.2303 11.043V11.043C43.1881 11.043 43.9626 11.7695 43.9535 12.7273C43.8355 25.1574 43.1051 102.353 43.1051 108.52Z" fill="#FFCF26"></path><path d="M74.342 158.186C74.342 171.076 63.8928 181.525 51.003 181.525C38.1133 181.525 27.6641 171.076 27.6641 158.186C27.6641 153.279 28.6502 148.431 30.7813 144.455C37.9081 131.159 48.4098 128.797 48.4098 108.051L49.2604 1.72876C49.2681 0.771763 50.046 0 51.003 0C51.9601 0 52.738 0.771762 52.7457 1.72876L53.5963 108.051C53.5963 128.797 63.8237 131.331 71.1147 144.553C73.2973 148.51 74.342 153.319 74.342 158.186Z" fill="#FF5A00"></path></svg>